PathFileType	4	(X/Y/Z)	s01c0103.trc
DataRate	CameraRate	NumFrames	NumMarkers	Units	OrigDataRate	OrigDataStartFrame	OrigNumFrames
200	200	5	48	mm	200	500	2000
Frame#	Time	racr			lacr			c7			jug			rlel			rdr			llel			ldr			s2			lic			ric			lasi			rasi			rpsi			lpsi			rgt			lgt			rth1			rth2			rth3			rth4			rlfc			rsh1			rsh2			rsh3			rsh4			rlmal			rmmal			rcal			rtoe			rmt5			lth1			lth2			lth4			lth3			llfc			lsh1			lsh2			lsh3			lsh4			llmal			lmmal			lcal			ltoe			lmt5			SBIKE			LBIKE			RBIKE			
		X1	Y1	Z1	X2	Y2	Z2	X3	Y3	Z3	X4	Y4	Z4	X5	Y5	Z5	X6	Y6	Z6	X7	Y7	Z7	X8	Y8	Z8	X9	Y9	Z9	X10	Y10	Z10	X11	Y11	Z11	X12	Y12	Z12	X13	Y13	Z13	X14	Y14	Z14	X15	Y15	Z15	X16	Y16	Z16	X17	Y17	Z17	X18	Y18	Z18	X19	Y19	Z19	X20	Y20	Z20	X21	Y21	Z21	X22	Y22	Z22	X23	Y23	Z23	X24	Y24	Z24	X25	Y25	Z25	X26	Y26	Z26	X27	Y27	Z27	X28	Y28	Z28	X29	Y29	Z29	X30	Y30	Z30	X31	Y31	Z31	X32	Y32	Z32	X33	Y33	Z33	X34	Y34	Z34	X35	Y35	Z35	X36	Y36	Z36	X37	Y37	Z37	X38	Y38	Z38	X39	Y39	Z39	X40	Y40	Z40	X41	Y41	Z41	X42	Y42	Z42	X43	Y43	Z43	X44	Y44	Z44	X45	Y45	Z45	X46	Y46	Z46	X47	Y47	Z47	X48	Y48	Z48	
500	2.5000	501.441040	1325.914917	-100.966682	488.099792	1310.325317	-397.632721	445.184387	1398.387085	-243.489136	446.359924	1234.310547	-244.990128	574.838623	1064.445068	-0.303577	740.149048	859.092102	-59.879543	544.921936	1052.914429	-512.428162	724.304077	878.825073	-430.761658	0.000000	0.000000	-0.000000	68.396317	1197.644165	-397.825897	92.537552	1165.225342	-64.269470	81.713928	1140.652588	-371.181824	118.797592	1122.208130	-95.911842	-45.023304	1200.586060	-150.845291	-59.708488	1211.932495	-255.875961	42.640720	1041.218628	-39.788021	34.584206	1084.485718	-423.139038	113.582314	931.268311	-27.051279	165.730438	866.067078	-32.124676	215.927917	792.187256	-48.951256	209.962753	898.348450	-46.246212	256.770630	685.858582	-71.954338	238.721252	568.738831	-41.388908	240.395950	484.339752	-49.293728	233.965118	396.464874	-62.547348	289.106720	486.493011	-86.136299	214.890213	279.657074	-90.987610	257.080505	297.490906	-162.250717	170.343185	270.391357	-142.109406	422.241882	167.269135	-133.966537	314.948486	168.936600	-63.007786	133.503113	1020.021057	-439.597015	221.651932	1010.901733	-450.433777	230.361298	1061.747070	-433.040894	304.989136	990.058777	-445.078430	400.912750	912.245178	-435.627472	305.439270	850.979553	-456.016022	250.373001	785.246887	-443.851624	194.156387	722.125427	-425.676025	296.480042	751.533752	-418.880646	115.978127	628.864563	-404.627075	148.605957	623.065857	-323.631866	58.907310	617.290039	-358.522461	282.969116	455.933533	-372.538910	182.034561	496.188721	-435.531464	-223.491974	893.289490	-249.284500	-12.405992	85.550682	-455.672119	-21.196524	80.619995	-55.606792	
501	2.5050	501.812927	1324.704956	-99.950577	487.186798	1311.543091	-396.955414	445.367371	1398.395386	-242.150528	446.677277	1234.572876	-244.374802	575.928955	1063.024658	0.734299	740.510193	858.606873	-59.315483	542.204834	1054.088745	-511.795471	723.265381	880.647644	-430.834808	0.000000	0.000000	-0.000000	68.237663	1199.083496	-396.328186	92.070648	1165.511597	-63.111687	81.733551	1141.911255	-369.988251	118.151291	1122.013916	-94.245735	-45.209454	1200.787109	-149.646957	-59.841885	1212.848511	-254.491562	41.002083	1040.941284	-39.144554	34.652451	1087.300659	-422.320770	110.897072	930.315857	-26.061569	162.220947	864.428772	-30.753485	211.758255	789.861206	-47.227322	207.006470	896.201294	-44.505646	251.149078	683.377258	-70.484062	232.883438	566.636414	-40.261059	234.492554	482.191376	-48.177467	228.043823	394.284119	-61.558933	283.445282	484.308899	-84.769028	209.323914	277.970001	-90.083504	249.402084	294.411713	-162.111374	164.769806	269.859161	-141.349823	414.186188	160.880203	-134.313461	307.164581	164.938538	-62.963367	133.852631	1024.293701	-438.932068	222.246857	1016.479431	-449.286652	230.200348	1067.300537	-431.076202	305.810944	996.615356	-443.439087	403.250916	919.614014	-434.181549	308.504333	857.308716	-454.496185	254.084854	790.808411	-442.584503	198.988327	726.937500	-424.856812	300.692780	757.476562	-418.081635	121.994431	632.082397	-403.981445	154.747330	626.673889	-322.983124	64.844727	619.166260	-358.166107	291.722717	462.075409	-372.405731	190.068085	500.563904	-435.240570	-223.511810	893.331177	-249.201645	-12.403010	85.600166	-455.606171	-21.201237	80.646088	-55.566357	
502	2.5100	501.869598	1323.700806	-98.721672	486.369812	1312.665283	-396.343475	445.404327	1398.318359	-240.958054	446.881561	1234.761719	-243.805725	576.581299	1061.781616	1.896698	740.542908	858.166687	-58.828106	538.999084	1054.984009	-511.226135	722.266968	882.308533	-431.098389	0.000000	0.000000	-0.000000	68.563538	1200.515015	-395.228271	91.513809	1165.698120	-61.932487	81.597275	1143.186279	-368.807220	117.542450	1121.867676	-92.592865	-45.431259	1201.071777	-148.561737	-60.076603	1213.812500	-253.172516	39.390957	1040.702515	-38.455505	34.610096	1090.058105	-421.429596	108.322220	929.393188	-25.096689	158.798508	862.918030	-29.710960	207.746140	787.931396	-45.535881	204.253098	894.319336	-42.779163	246.218140	681.294983	-69.337929	227.396332	564.784241	-39.359245	228.771759	480.407837	-47.206387	222.043060	392.553497	-60.730465	277.952759	482.314362	-83.516220	203.582199	276.502869	-89.385956	241.860901	291.824646	-161.982758	159.077667	269.902100	-140.758820	405.838684	154.969910	-134.567978	299.194031	161.389648	-62.881073	134.042557	1028.316040	-438.058533	222.641312	1021.954651	-448.261139	229.853989	1072.232910	-428.374664	306.351654	1002.619934	-441.667084	405.358124	926.503723	-432.672150	311.519012	863.257690	-452.981689	257.944122	795.939453	-441.462036	203.648407	731.213074	-423.920837	305.095825	763.063049	-417.274353	128.146133	634.619507	-403.373138	160.236633	629.313904	-322.276978	70.841919	620.359680	-357.859283	300.732605	467.660583	-372.113556	198.381744	504.433441	-434.870789	-223.483688	893.364075	-249.124023	-12.394647	85.668350	-455.558441	-21.195080	80.631760	-55.531521	
503	2.5150	501.645538	1322.943604	-97.433853	485.699127	1313.645264	-395.772980	445.312622	1398.148682	-239.887833	446.979126	1234.880005	-243.281815	576.768066	1060.587036	3.052286	740.462158	857.948181	-58.530293	535.688232	1055.401733	-510.605164	721.375488	883.524719	-431.241272	0.000000	0.000000	-0.000000	68.393303	1201.943115	-393.959625	90.980309	1165.849487	-60.798931	81.276176	1144.401489	-367.576935	116.795372	1121.683228	-91.094498	-45.740719	1201.424438	-147.474838	-60.419502	1214.826050	-251.906631	37.852211	1040.522217	-37.846500	34.457653	1092.633545	-420.591339	105.833450	928.516541	-24.302120	155.753738	861.618103	-28.574745	204.081512	786.091431	-43.816177	201.574203	892.698486	-41.152309	241.799698	679.460266	-68.472130	222.332275	563.403076	-38.675194	223.328323	479.044678	-46.475559	216.170151	391.160095	-60.063591	272.720459	480.673584	-82.500397	197.540344	275.650116	-88.745872	234.551758	289.765472	-161.853683	153.223602	270.132080	-140.262360	397.219360	149.489288	-134.809860	290.821747	158.367081	-62.865898	134.135925	1032.116455	-437.035278	222.832596	1026.828247	-446.581482	229.323090	1076.834351	-425.615845	306.686890	1008.281921	-439.681458	407.146667	933.088684	-430.978485	314.440338	868.566223	-451.445221	261.785278	800.479980	-440.324432	208.209320	735.018616	-423.136047	309.395477	768.208923	-416.386047	134.301636	636.649780	-402.818298	168.427963	631.534851	-322.671997	76.860825	620.831116	-357.617554	310.099121	472.759186	-371.717102	206.798065	507.722961	-434.582764	-223.482910	893.380859	-248.973465	-12.397936	85.703506	-455.512848	-21.186743	80.641571	-55.484814	
504	2.5200	501.206573	1322.306519	-96.255753	485.208954	1314.447876	-395.219604	445.124481	1397.886719	-238.914536	446.976318	1234.930908	-242.801987	576.451355	1059.697266	4.079858	740.322144	857.722961	-58.157467	531.336243	1055.471924	-510.878113	720.726257	884.459045	-431.366150	0.000000	0.000000	-0.000000	68.291878	1203.279297	-392.784576	90.432251	1165.881836	-59.691029	80.924026	1145.645386	-366.422058	116.015266	1121.523315	-89.647934	-46.104931	1201.856323	-146.454514	-60.872887	1215.888672	-250.684128	36.423779	1040.306396	-37.312145	34.140968	1094.984009	-419.739380	103.503723	927.967285	-23.513769	152.950394	860.564087	-27.524487	200.669800	784.673279	-42.111481	199.054214	891.145630	-39.790554	238.202225	678.023376	-67.852654	217.675629	562.416077	-38.262241	218.106415	477.992218	-46.008377	210.433929	390.179810	-59.563244	267.208221	479.177063	-81.936142	191.501938	275.152252	-88.209503	227.569504	288.269928	-161.712952	147.280441	270.796021	-139.929352	388.423828	144.745255	-135.027634	282.436859	155.881592	-62.872551	133.978577	1035.672974	-435.854340	222.863968	1031.183960	-444.714386	228.787933	1080.968018	-423.031769	306.872925	1013.392456	-437.584290	408.534668	939.252441	-429.216217	317.190399	873.394043	-449.956085	265.679810	804.636536	-439.266052	213.349030	737.933472	-422.095184	313.677582	773.021912	-415.338135	140.861420	637.835876	-402.318481	173.578888	633.767700	-321.435364	82.857040	620.535156	-357.455841	318.799835	477.218689	-371.457245	214.949692	510.275726	-434.144745	-223.518692	893.384399	-248.900482	-12.430737	85.702858	-455.482788	-21.181890	80.619629	-55.446045	
